# Blender v2.79 (sub 0) OBJ File: ''
# www.blender.org
mtllib untitled.mtl
o Arcade
v 0.000000 1.104406 0.977213
v -0.164925 1.104406 0.977213
v -0.164925 -0.000000 0.977213
v 0.000000 -0.000000 0.977213
v -1.299680 1.104406 0.299831
v -1.299680 0.946308 0.005239
v -1.299680 -0.000000 0.005239
v -1.299680 -0.000000 0.299831
v -0.164925 0.946308 0.005239
v 0.000000 0.946308 0.005239
v 0.000000 -0.000000 0.005239
v -0.164925 -0.000000 0.005239
v 0.000000 0.946308 0.005239
v 0.000000 1.104406 0.299831
v 0.000000 -0.000000 0.299831
v 0.000000 -0.000000 0.005239
v 0.000000 0.946308 0.005239
v -0.164925 0.946308 0.005239
v -0.164925 1.104406 0.299831
v 0.000000 1.104406 0.299831
v 0.000000 -0.000000 0.299831
v -0.164925 -0.000000 0.299831
v -0.164925 -0.000000 0.005239
v 0.000000 -0.000000 0.005239
v 0.000000 -0.000000 0.977213
v -0.164925 -0.000000 0.977213
v -0.164925 -0.000000 0.299831
v 0.000000 -0.000000 0.299831
v 0.000000 1.104406 0.977213
v 0.000000 -0.000000 0.977213
v 0.000000 -0.000000 0.299831
v 0.000000 1.104406 0.299831
v -1.299680 -0.000000 0.977213
v -1.299680 1.104406 0.977213
v -1.299680 1.104406 0.299831
v -1.299680 -0.000000 0.299831
v -0.164925 2.605811 0.977213
v 0.000000 2.605811 0.977213
v 0.000000 2.605811 0.299831
v -0.164925 2.605811 0.299831
v -0.164925 2.311621 0.299831
v 0.000000 2.311621 0.299831
v 0.000000 1.104406 0.299831
v -0.164925 1.104406 0.299831
v -1.299680 2.311621 0.977213
v -1.299680 2.311621 0.299831
v -1.299680 1.104406 0.299831
v -1.299680 1.104406 0.977213
v 0.000000 2.311621 0.299831
v 0.000000 2.311621 0.977213
v 0.000000 1.104406 0.977213
v 0.000000 1.104406 0.299831
v 0.000000 2.311621 0.977213
v -0.164925 2.311621 0.977213
v -0.164925 1.104406 0.977213
v 0.000000 1.104406 0.977213
v -0.164925 2.605811 0.008478
v 0.000000 2.605811 0.008478
v 0.000000 2.311621 0.008478
v -0.164925 2.311621 0.008478
v -1.299680 2.605811 0.977213
v -1.299680 2.605811 0.299831
v -1.299680 2.311621 0.299831
v -1.299680 2.311621 0.977213
v 0.000000 2.605811 0.299831
v 0.000000 2.605811 0.977213
v 0.000000 2.311621 0.977213
v 0.000000 2.311621 0.299831
v 0.000000 2.605811 0.977213
v -0.164925 2.605811 0.977213
v -0.164925 2.311621 0.977213
v 0.000000 2.311621 0.977213
v -0.164925 2.311621 0.008478
v 0.000000 2.311621 0.008478
v 0.000000 2.311621 0.299831
v -0.164925 2.311621 0.299831
v -1.299680 2.605811 0.008478
v -1.299680 2.311621 0.008478
v -1.299680 2.311621 0.299831
v -1.299680 2.605811 0.299831
v 0.000000 2.311621 0.008478
v 0.000000 2.605811 0.008478
v 0.000000 2.605811 0.299831
v 0.000000 2.311621 0.299831
v 0.000000 2.605811 0.008478
v -0.164925 2.605811 0.008478
v -0.164925 2.605811 0.299831
v 0.000000 2.605811 0.299831
v -1.164925 -0.000000 0.299831
v -1.164925 -0.000000 0.005239
v -0.164925 -0.000000 0.005239
v -0.164925 -0.000000 0.299831
v -1.164925 -0.000000 0.977213
v -1.164925 -0.000000 0.299831
v -0.164925 -0.000000 0.299831
v -0.164925 -0.000000 0.977213
v -1.164925 -0.000000 0.005239
v -1.164925 0.946308 0.005239
v -0.164925 0.946308 0.005239
v -0.164925 -0.000000 0.005239
v -1.164925 0.946308 0.005239
v -1.164925 1.104406 0.299831
v -0.164925 1.104406 0.299831
v -0.164925 0.946308 0.005239
v -1.164925 2.311621 0.977213
v -1.164925 1.104406 0.977213
v -0.164925 1.104406 0.977213
v -0.164925 2.311621 0.977213
v -1.164925 1.104406 0.977213
v -1.164925 -0.000000 0.977213
v -0.164925 -0.000000 0.977213
v -0.164925 1.104406 0.977213
v -1.164925 1.104406 0.299831
v -1.164925 2.311621 0.299831
v -0.164925 2.311621 0.299831
v -0.164925 1.104406 0.299831
v -1.164925 2.605811 0.977213
v -1.164925 2.311621 0.977213
v -0.164925 2.311621 0.977213
v -0.164925 2.605811 0.977213
v -1.164925 2.605811 0.008478
v -1.164925 2.605811 0.299831
v -0.164925 2.605811 0.299831
v -0.164925 2.605811 0.008478
v -1.164925 2.605811 0.299831
v -1.164925 2.605811 0.977213
v -0.164925 2.605811 0.977213
v -0.164925 2.605811 0.299831
v -1.164925 2.311621 0.299831
v -1.164925 2.311621 0.008478
v -0.164925 2.311621 0.008478
v -0.164925 2.311621 0.299831
v -1.164925 2.311621 0.008478
v -1.164925 2.605811 0.008478
v -0.164925 2.605811 0.008478
v -0.164925 2.311621 0.008478
v -1.299680 -0.000000 0.299831
v -1.299680 -0.000000 0.005239
v -1.164925 -0.000000 0.005239
v -1.164925 -0.000000 0.299831
v -1.299680 -0.000000 0.977213
v -1.299680 -0.000000 0.299831
v -1.164925 -0.000000 0.299831
v -1.164925 -0.000000 0.977213
v -1.299680 -0.000000 0.005239
v -1.299680 0.946308 0.005239
v -1.164925 0.946308 0.005239
v -1.164925 -0.000000 0.005239
v -1.299680 0.946308 0.005239
v -1.299680 1.104406 0.299831
v -1.164925 1.104406 0.299831
v -1.164925 0.946308 0.005239
v -1.299680 2.311621 0.977213
v -1.299680 1.104406 0.977213
v -1.164925 1.104406 0.977213
v -1.164925 2.311621 0.977213
v -1.299680 1.104406 0.977213
v -1.299680 -0.000000 0.977213
v -1.164925 -0.000000 0.977213
v -1.164925 1.104406 0.977213
v -1.299680 1.104406 0.299831
v -1.299680 2.311621 0.299831
v -1.164925 2.311621 0.299831
v -1.164925 1.104406 0.299831
v -1.299680 2.605811 0.977213
v -1.299680 2.311621 0.977213
v -1.164925 2.311621 0.977213
v -1.164925 2.605811 0.977213
v -1.299680 2.605811 0.008478
v -1.299680 2.605811 0.299831
v -1.164925 2.605811 0.299831
v -1.164925 2.605811 0.008478
v -1.299680 2.605811 0.299831
v -1.299680 2.605811 0.977213
v -1.164925 2.605811 0.977213
v -1.164925 2.605811 0.299831
v -1.299680 2.311621 0.299831
v -1.299680 2.311621 0.008478
v -1.164925 2.311621 0.008478
v -1.164925 2.311621 0.299831
v -1.299680 2.311621 0.008478
v -1.299680 2.605811 0.008478
v -1.164925 2.605811 0.008478
v -1.164925 2.311621 0.008478
vt 0.905073 0.250689
vt 0.944841 0.250689
vt 0.944841 0.527552
vt 0.905073 0.527552
vt 0.716625 0.000000
vt 0.787659 0.039633
vt 0.787659 0.276863
vt 0.716625 0.276863
vt 0.864076 0.749311
vt 0.903844 0.749311
vt 0.903844 0.986540
vt 0.864076 0.986540
vt 0.645591 0.039633
vt 0.716625 0.000000
vt 0.716625 0.276863
vt 0.645591 0.276863
vt 0.351149 0.909483
vt 0.311381 0.909483
vt 0.311381 0.830188
vt 0.351149 0.830188
vt 0.351149 0.830188
vt 0.390917 0.830188
vt 0.390917 0.904039
vt 0.351149 0.904039
vt 0.000000 0.830188
vt 0.039768 0.830188
vt 0.039768 1.000000
vt 0.000000 1.000000
vt 0.404463 0.553325
vt 0.404463 0.830188
vt 0.241128 0.830188
vt 0.241128 0.553325
vt 0.632644 0.579498
vt 0.632644 0.302636
vt 0.795980 0.302636
vt 0.795980 0.579498
vt 0.039768 0.830188
vt 0.079536 0.830188
vt 0.079536 0.997758
vt 0.039768 0.997758
vt 0.404463 0.553325
vt 0.444231 0.553325
vt 0.444231 0.855961
vt 0.404463 0.855961
vt 0.482255 0.000000
vt 0.645591 0.000000
vt 0.645591 0.302636
vt 0.482255 0.302636
vt 0.632644 0.605271
vt 0.469309 0.605272
vt 0.469308 0.302636
vt 0.632644 0.302636
vt 0.905073 0.553325
vt 0.865305 0.553325
vt 0.865305 0.250689
vt 0.905073 0.250689
vt 0.672412 0.903938
vt 0.632644 0.903938
vt 0.632644 0.830188
vt 0.672412 0.830188
vt 0.935014 0.579498
vt 0.935014 0.749311
vt 0.864076 0.749311
vt 0.864076 0.579498
vt 0.858597 0.169812
vt 0.858597 0.000000
vt 0.929534 0.000000
vt 0.929534 0.169812
vt 0.712180 0.903938
vt 0.672412 0.903938
vt 0.672412 0.830188
vt 0.712180 0.830188
vt 0.751948 0.903227
vt 0.712180 0.903227
vt 0.712180 0.830188
vt 0.751948 0.830188
vt 0.311381 0.830188
vt 0.311381 0.903938
vt 0.241128 0.903938
vt 0.241128 0.830188
vt 0.214776 0.830188
vt 0.214776 0.903938
vt 0.144522 0.903938
vt 0.144522 0.830188
vt 0.791716 0.902262
vt 0.751948 0.902262
vt 0.751948 0.830188
vt 0.791716 0.830188
vt 0.540343 0.855961
vt 0.469309 0.855961
vt 0.469308 0.605272
vt 0.540343 0.605272
vt 0.163336 0.830188
vt 0.000000 0.830188
vt 0.000000 0.579498
vt 0.163335 0.579498
vt 0.469308 0.553325
vt 0.241128 0.553325
vt 0.241128 0.302636
vt 0.469308 0.302636
vt 0.239606 0.830188
vt 0.163336 0.830188
vt 0.163336 0.579498
vt 0.239606 0.579498
vt 0.241128 0.302636
vt 0.241128 0.000000
vt 0.482255 0.000000
vt 0.482255 0.302636
vt 0.000000 0.579498
vt 0.000000 0.302636
vt 0.241128 0.302636
vt 0.241128 0.579498
vt 0.000000 0.302636
vt 0.000000 0.000000
vt 0.241128 0.000000
vt 0.241128 0.302636
vt 0.540343 0.605272
vt 0.611280 0.605272
vt 0.611280 0.855961
vt 0.540343 0.855961
vt 0.865305 0.553325
vt 0.795980 0.553325
vt 0.795980 0.302636
vt 0.865305 0.302636
vt 0.793823 0.830188
vt 0.632644 0.830188
vt 0.632644 0.579498
vt 0.793823 0.579498
vt 0.864076 0.830188
vt 0.793823 0.830188
vt 0.793823 0.579498
vt 0.864076 0.579498
vt 0.787659 0.000000
vt 0.858597 0.000000
vt 0.858597 0.250689
vt 0.787659 0.250689
vt 0.858809 0.830188
vt 0.858809 0.904039
vt 0.826316 0.904039
vt 0.826316 0.830188
vt 0.112029 0.830188
vt 0.112029 1.000000
vt 0.079536 1.000000
vt 0.079536 0.830188
vt 0.962027 0.000000
vt 0.962027 0.237229
vt 0.929534 0.237229
vt 0.929534 0.000000
vt 0.793823 0.909483
vt 0.793823 0.830188
vt 0.826316 0.830188
vt 0.826316 0.909483
vt 0.944841 0.553325
vt 0.944841 0.250689
vt 0.977334 0.250689
vt 0.977334 0.553325
vt 0.967507 0.856361
vt 0.967507 0.579498
vt 1.000000 0.579498
vt 1.000000 0.856361
vt 0.935014 0.882134
vt 0.935014 0.579498
vt 0.967507 0.579498
vt 0.967507 0.882134
vt 0.858597 0.243563
vt 0.858597 0.169812
vt 0.891090 0.169812
vt 0.891090 0.243563
vt 0.501802 0.928035
vt 0.501802 0.855961
vt 0.534295 0.855961
vt 0.534295 0.928035
vt 0.112029 0.997758
vt 0.112029 0.830188
vt 0.144522 0.830188
vt 0.144522 0.997758
vt 0.501802 0.855961
vt 0.501802 0.929000
vt 0.469308 0.929000
vt 0.469308 0.855961
vt 0.404463 0.929711
vt 0.404463 0.855961
vt 0.436956 0.855961
vt 0.436956 0.929711
vn 0.0000 0.0000 1.0000
vn -1.0000 0.0000 0.0000
vn 0.0000 0.0000 -1.0000
vn 1.0000 0.0000 0.0000
vn 0.0000 0.8811 -0.4729
vn 0.0000 -1.0000 0.0000
vn 0.0000 1.0000 0.0000
usemtl (null)
s 1
f 1/1/1 2/2/1 3/3/1 4/4/1
f 5/5/2 6/6/2 7/7/2 8/8/2
f 9/9/3 10/10/3 11/11/3 12/12/3
f 13/13/4 14/14/4 15/15/4 16/16/4
f 17/17/5 18/18/5 19/19/5 20/20/5
f 21/21/6 22/22/6 23/23/6 24/24/6
f 25/25/6 26/26/6 27/27/6 28/28/6
f 29/29/4 30/30/4 31/31/4 32/32/4
f 33/33/2 34/34/2 35/35/2 36/36/2
f 37/37/7 38/38/7 39/39/7 40/40/7
f 41/41/3 42/42/3 43/43/3 44/44/3
f 45/45/2 46/46/2 47/47/2 48/48/2
f 49/49/4 50/50/4 51/51/4 52/52/4
f 53/53/1 54/54/1 55/55/1 56/56/1
f 57/57/3 58/58/3 59/59/3 60/60/3
f 61/61/2 62/62/2 63/63/2 64/64/2
f 65/65/4 66/66/4 67/67/4 68/68/4
f 69/69/1 70/70/1 71/71/1 72/72/1
f 73/73/6 74/74/6 75/75/6 76/76/6
f 77/77/2 78/78/2 79/79/2 80/80/2
f 81/81/4 82/82/4 83/83/4 84/84/4
f 85/85/7 86/86/7 87/87/7 88/88/7
f 89/89/6 90/90/6 91/91/6 92/92/6
f 93/93/6 94/94/6 95/95/6 96/96/6
f 97/97/3 98/98/3 99/99/3 100/100/3
f 101/101/5 102/102/5 103/103/5 104/104/5
f 105/105/1 106/106/1 107/107/1 108/108/1
f 109/109/1 110/110/1 111/111/1 112/112/1
f 113/113/3 114/114/3 115/115/3 116/116/3
f 117/117/1 118/118/1 119/119/1 120/120/1
f 121/121/7 122/122/7 123/123/7 124/124/7
f 125/125/7 126/126/7 127/127/7 128/128/7
f 129/129/6 130/130/6 131/131/6 132/132/6
f 133/133/3 134/134/3 135/135/3 136/136/3
f 137/137/6 138/138/6 139/139/6 140/140/6
f 141/141/6 142/142/6 143/143/6 144/144/6
f 145/145/3 146/146/3 147/147/3 148/148/3
f 149/149/5 150/150/5 151/151/5 152/152/5
f 153/153/1 154/154/1 155/155/1 156/156/1
f 157/157/1 158/158/1 159/159/1 160/160/1
f 161/161/3 162/162/3 163/163/3 164/164/3
f 165/165/1 166/166/1 167/167/1 168/168/1
f 169/169/7 170/170/7 171/171/7 172/172/7
f 173/173/7 174/174/7 175/175/7 176/176/7
f 177/177/6 178/178/6 179/179/6 180/180/6
f 181/181/3 182/182/3 183/183/3 184/184/3
